<svg width="2427" height="678" viewBox="0 0 2427 678" fill="none" xmlns="http://www.w3.org/2000/svg">
<rect width="2427" height="678" rx="38" fill="white"/>
<path d="M985.665 282.818C985.665 320.71 978.297 352.675 963.561 378.712C948.825 404.638 928.938 424.304 903.898 437.71C878.858 451.006 850.938 457.653 820.136 457.653C789.114 457.653 761.082 450.95 736.043 437.544C711.114 424.027 691.281 404.305 676.545 378.379C661.92 352.342 654.608 320.489 654.608 282.818C654.608 244.926 661.92 213.017 676.545 187.091C691.281 161.054 711.114 141.388 736.043 128.092C761.082 114.686 789.114 107.983 820.136 107.983C850.938 107.983 878.858 114.686 903.898 128.092C928.938 141.388 948.825 161.054 963.561 187.091C978.297 213.017 985.665 244.926 985.665 282.818ZM890.602 282.818C890.602 262.432 887.888 245.259 882.459 231.298C877.141 217.227 869.219 206.591 858.693 199.389C848.278 192.077 835.426 188.42 820.136 188.42C804.847 188.42 791.939 192.077 781.413 199.389C770.999 206.591 763.077 217.227 757.648 231.298C752.33 245.259 749.67 262.432 749.67 282.818C749.67 303.205 752.33 320.433 757.648 334.504C763.077 348.464 770.999 359.101 781.413 366.413C791.939 373.615 804.847 377.216 820.136 377.216C835.426 377.216 848.278 373.615 858.693 366.413C869.219 359.101 877.141 348.464 882.459 334.504C887.888 320.433 890.602 303.205 890.602 282.818ZM1346.18 240.273H1252.45C1251.78 232.517 1250.01 225.482 1247.13 219.166C1244.36 212.851 1240.48 207.422 1235.49 202.879C1230.62 198.226 1224.69 194.68 1217.71 192.243C1210.73 189.695 1202.81 188.42 1193.95 188.42C1178.44 188.42 1165.31 192.187 1154.56 199.722C1143.92 207.256 1135.83 218.058 1130.29 232.129C1124.87 246.2 1122.15 263.097 1122.15 282.818C1122.15 303.648 1124.92 321.098 1130.46 335.169C1136.11 349.129 1144.25 359.655 1154.89 366.746C1165.53 373.726 1178.32 377.216 1193.28 377.216C1201.81 377.216 1209.46 376.163 1216.22 374.058C1222.97 371.842 1228.85 368.685 1233.83 364.585C1238.82 360.486 1242.86 355.555 1245.96 349.794C1249.18 343.922 1251.34 337.33 1252.45 330.017L1346.18 330.682C1345.07 345.085 1341.03 359.766 1334.05 374.723C1327.07 389.57 1317.15 403.308 1304.3 415.939C1291.56 428.459 1275.77 438.541 1256.93 446.186C1238.1 453.831 1216.22 457.653 1191.29 457.653C1160.04 457.653 1132.01 450.95 1107.19 437.544C1082.49 424.138 1062.93 404.416 1048.53 378.379C1034.23 352.342 1027.09 320.489 1027.09 282.818C1027.09 244.926 1034.4 213.017 1049.03 187.091C1063.65 161.054 1083.37 141.388 1108.19 128.092C1133.01 114.686 1160.71 107.983 1191.29 107.983C1212.78 107.983 1232.56 110.919 1250.62 116.791C1268.68 122.663 1284.52 131.25 1298.15 142.551C1311.78 153.741 1322.75 167.536 1331.06 183.933C1339.37 200.331 1344.41 219.111 1346.18 240.273ZM1717.83 282.818C1717.83 320.71 1710.46 352.675 1695.73 378.712C1680.99 404.638 1661.1 424.304 1636.06 437.71C1611.02 451.006 1583.1 457.653 1552.3 457.653C1521.28 457.653 1493.25 450.95 1468.21 437.544C1443.28 424.027 1423.45 404.305 1408.71 378.379C1394.08 352.342 1386.77 320.489 1386.77 282.818C1386.77 244.926 1394.08 213.017 1408.71 187.091C1423.45 161.054 1443.28 141.388 1468.21 128.092C1493.25 114.686 1521.28 107.983 1552.3 107.983C1583.1 107.983 1611.02 114.686 1636.06 128.092C1661.1 141.388 1680.99 161.054 1695.73 187.091C1710.46 213.017 1717.83 244.926 1717.83 282.818ZM1622.77 282.818C1622.77 262.432 1620.05 245.259 1614.62 231.298C1609.3 217.227 1601.38 206.591 1590.86 199.389C1580.44 192.077 1567.59 188.42 1552.3 188.42C1537.01 188.42 1524.1 192.077 1513.58 199.389C1503.16 206.591 1495.24 217.227 1489.81 231.298C1484.49 245.259 1481.83 262.432 1481.83 282.818C1481.83 303.205 1484.49 320.433 1489.81 334.504C1495.24 348.464 1503.16 359.101 1513.58 366.413C1524.1 373.615 1537.01 377.216 1552.3 377.216C1567.59 377.216 1580.44 373.615 1590.86 366.413C1601.38 359.101 1609.3 348.464 1614.62 334.504C1620.05 320.433 1622.77 303.205 1622.77 282.818ZM1891.54 453H1760.58V112.636H1890.21C1925.22 112.636 1955.47 119.45 1980.95 133.078C2006.55 146.595 2026.27 166.095 2040.12 191.578C2054.08 216.95 2061.06 247.364 2061.06 282.818C2061.06 318.273 2054.13 348.741 2040.29 374.224C2026.44 399.597 2006.82 419.097 1981.45 432.724C1956.08 446.241 1926.11 453 1891.54 453ZM1852.99 374.557H1888.22C1905.06 374.557 1919.41 371.842 1931.26 366.413C1943.23 360.984 1952.31 351.622 1958.52 338.327C1964.83 325.031 1967.99 306.528 1967.99 282.818C1967.99 259.108 1964.78 240.605 1958.35 227.31C1952.04 214.014 1942.73 204.652 1930.43 199.223C1918.24 193.794 1903.29 191.08 1885.56 191.08H1852.99V374.557ZM2103.81 453V112.636H2349.11V187.091H2196.22V245.591H2336.48V320.045H2196.22V378.545H2348.45V453H2103.81Z" fill="#40A2E3"/>
<path d="M73 61H201V524H73V61Z" fill="#40A2E3"/>
<path d="M590 462L462 462L462 61L590 61L590 462Z" fill="#40A2E3"/>
<path fill-rule="evenodd" clip-rule="evenodd" d="M200.602 61L116 157.055L226.221 254.134C229.316 206.181 264.601 166.995 310.691 157.963L200.602 61ZM435.762 268.122C432.552 316.046 397.188 355.163 351.058 364.086L462.251 462.022L546.853 365.967L435.762 268.122Z" fill="#40A2E3"/>
<circle cx="331" cy="261" r="87" fill="#40A2E3"/>
<rect x="73" y="497" width="2281" height="128" fill="#40A2E3"/>
<mask id="mask0_12_45" style="mask-type:alpha" maskUnits="userSpaceOnUse" x="276" y="203" width="117" height="117">
<rect x="276" y="203" width="117" height="117" fill="#D9D9D9"/>
</mask>
<g mask="url(#mask0_12_45)">
<path d="M310.126 276.125C314.188 276.125 317.641 274.703 320.485 271.859C323.329 269.016 324.751 265.562 324.751 261.5C324.751 257.437 323.329 253.984 320.485 251.141C317.641 248.297 314.188 246.875 310.126 246.875C306.063 246.875 302.61 248.297 299.766 251.141C296.922 253.984 295.501 257.437 295.501 261.5C295.501 265.562 296.922 269.016 299.766 271.859C302.61 274.703 306.063 276.125 310.126 276.125ZM310.126 294.528C301.026 294.528 293.246 291.298 286.786 284.839C280.327 278.38 277.097 270.6 277.097 261.5C277.097 252.319 280.307 244.519 286.726 238.1C293.144 231.681 300.944 228.472 310.126 228.472C317.276 228.472 323.674 230.483 329.321 234.505C334.968 238.526 338.807 243.666 340.838 249.922L381.301 249.922L393.122 261.256L373.379 281.731L361.679 271.006L350.71 281.975L341.935 273.078H340.96C338.604 279.659 334.582 284.88 328.894 288.739C323.207 292.598 316.951 294.528 310.126 294.528Z" fill="white"/>
</g>
</svg>
